<svg xmlns="http://www.w3.org/2000/svg" viewBox="0 0 32 32" width="32" height="32">
    <path d="M28.571 0H3.429A3.429 3.429 0 0 0 0 3.429v25.142A3.429 3.429 0 0 0 3.429 32h25.142A3.429 3.429 0 0 0 32 28.571V3.429A3.429 3.429 0 0 0 28.571 0Zm-3.492 11.343c.014.2.014.407.014.607a13.238 13.238 0 0 1-13.329 13.329 13.267 13.267 0 0 1-7.193-2.1 9.869 9.869 0 0 0 1.129.057 9.392 9.392 0 0 0 5.814-2 4.691 4.691 0 0 1-4.379-3.25A5.049 5.049 0 0 0 9.25 17.9a4.685 4.685 0 0 1-3.75-4.6v-.057a4.682 4.682 0 0 0 2.114.593 4.675 4.675 0 0 1-2.086-3.9 4.626 4.626 0 0 1 .636-2.364 13.3 13.3 0 0 0 9.657 4.9 4.695 4.695 0 0 1 7.993-4.279 9.18 9.18 0 0 0 2.971-1.129 4.672 4.672 0 0 1-2.057 2.579 9.323 9.323 0 0 0 2.7-.729 9.861 9.861 0 0 1-2.349 2.429Z" fill="#fff"/>
</svg>
